<?xml version="1.0" encoding="UTF-8"?>
<svg id="_Шар_1" data-name="Шар 1" xmlns="http://www.w3.org/2000/svg" width="120" height="60.26" viewBox="0 0 120 60.26">
  <defs>
    <style>
      .cls-1, .cls-2 {
        stroke: #000;
        stroke-miterlimit: 10;
      }

      .cls-3, .cls-4 {
        stroke-width: 0px;
      }

      .cls-5 {
        letter-spacing: -.04em;
      }

      .cls-6 {
        font-family: MyriadPro-Regular, 'Myriad Pro';
        font-size: 49px;
      }

      .cls-2 {
        stroke-width: 2px;
      }

      .cls-4 {
        fill: #4169ce;
      }
    </style>
  </defs>
  <g>
    <rect class="cls-4" x="1" y="1" width="118" height="58"/>
    <path class="cls-3" d="m118,2v56H2V2h116m2-2H0v60h120V0h0Z"/>
  </g>
  <text class="cls-6" transform="translate(63.97 48.01) scale(.93 1)"><tspan class="cls-5" x="0" y="0">L</tspan><tspan x="21.22" y="0">O</tspan></text>
  <line class="cls-2" x1="60" y1="60" x2="60"/>
  <g>
    <path class="cls-1" d="m30,7c-8.82,0-16,7.37-16,16.43,0,6.09,3.37,11.76,8.61,14.58l.16,2.29c.03.45.41.8.86.76.44-.03.77-.43.74-.88l-.19-2.75c-.02-.29-.19-.55-.45-.68-4.94-2.46-8.13-7.68-8.13-13.31,0-8.15,6.46-14.79,14.4-14.79s14.4,6.63,14.4,14.79c0,6.01-3.5,11.38-8.91,13.67-.28.12-.47.39-.49.7l-.35,5c-.03.45.3.85.74.88.02,0,.04,0,.06,0,.42,0,.77-.33.8-.76l.31-4.5c5.75-2.65,9.44-8.48,9.44-14.99,0-9.06-7.18-16.43-16-16.43Z"/>
    <path class="cls-1" d="m34.98,44.81l-10.4-2.46c-.43-.1-.86.17-.96.62-.1.44.17.88.6.99l10.4,2.46c.06.01.12.02.18.02.36,0,.69-.26.78-.64.1-.44-.17-.88-.6-.99Z"/>
    <path class="cls-1" d="m34.98,48.09l-10.4-2.46c-.43-.1-.86.17-.96.62-.1.44.17.88.6.99l10.4,2.46c.06.01.12.02.18.02.36,0,.69-.26.78-.64.1-.44-.17-.88-.6-.99Z"/>
    <path class="cls-1" d="m34.98,51.38l-10.4-2.46c-.43-.1-.86.17-.96.62-.1.44.17.88.6.99l10.4,2.46c.06.01.12.02.18.02.36,0,.69-.26.78-.64.1-.44-.17-.88-.6-.99Z"/>
  </g>
</svg>